<?xml version="1.0" encoding="utf-8"?>
<!-- Generator: Adobe Illustrator 25.2.1, SVG Export Plug-In . SVG Version: 6.00 Build 0)  -->
<svg version="1.1" id="Layer_1" xmlns="http://www.w3.org/2000/svg" xmlns:xlink="http://www.w3.org/1999/xlink" x="0px" y="0px"
	 viewBox="0 0 323.9 57" style="enable-background:new 0 0 323.9 57;" xml:space="preserve">
<g>
	<g>
		<g>
			<path d="M97.3,34c-1.8-0.4-12.2-2.4-12.2-2.4c-1.7-0.4-2.1-0.7-1.9-2l0.2-0.9c0.5-2.5,1.3-2.7,4.1-2.7h16.6l1.7-6.7
				c0,0-8.3-0.7-16.2-0.7c-9,0-12.8,2.7-14.4,9.3l-0.8,3.3c-1.5,6.2,1.4,6.7,7.5,7.8c1.3,0.2,9,1.7,10.8,2.1
				c1.4,0.3,1.5,1.2,1.2,2.2l-0.5,2.2c-0.7,2.8-2,3.5-5.6,3.5H70.3l-1.7,6.7c0,0,10.6,0.7,18.5,0.7c9.1,0,12.7-2.9,14.3-9.6l1.2-4.6
				C103.8,37.4,102.9,35.1,97.3,34"/>
			<path d="M132.1,30.3l-0.8,3.2c-0.7,2.9-2.5,4.4-5.7,4.4h-10.4l3-12.1h10.4C131.8,25.9,132.8,27.4,132.1,30.3 M140.7,28.4
				c1.4-5.7-1.3-9.5-8.3-9.5h-20.8l-9.2,37.4h8.2l2.8-11.4h12.5c6.9,0,11.6-3.8,13-9.6L140.7,28.4z"/>
			<polygon points="147.1,18.9 138,56.3 146.2,56.3 155.4,18.9 			"/>
			<path d="M185.9,18.9l-6,24.4h-0.2l-10.2-23.6c-0.3-0.6-0.3-0.9-2.1-0.9h-6.6l-9.2,37.4h8.2l5.9-24.1h0.3l9.9,22.7
				c0.5,1.1,0.8,1.4,2.2,1.4h6.8l9.2-37.4H185.9z"/>
			<path d="M224.5,18.9l-6,24.4h-0.2l-10.2-23.6c-0.3-0.6-0.3-0.9-2.1-0.9h-6.6l-9.2,37.4h8.2l5.9-24.1h0.3l9.9,22.7
				c0.5,1.1,0.8,1.4,2.2,1.4h6.8l9.2-37.4H224.5z"/>
			<polygon points="238.2,18.9 229,56.3 237.3,56.3 246.4,18.9 			"/>
			<path d="M277,18.9l-6,24.4h-0.2l-10.2-23.6c-0.3-0.6-0.3-0.9-2.1-0.9h-6.6l-9.2,37.4h8.2l5.9-24.1h0.3l9.9,22.7
				c0.5,1.1,0.8,1.4,2.2,1.4h6.8l9.2-37.4H277z"/>
			<path d="M299.4,41.6l9,0.4l-1.9,7.2l-11.3,0.1c-3.2,0.1-4.2-1.5-3.4-4.4l3.6-14.5c0.7-2.9,2.4-4.4,5.6-4.4h16.9l1.8-6.9
				c0,0-9.4-0.4-19-0.4c-6.9,0-11.8,4.6-13.2,10.4l-4.2,17.2c-1.4,5.8,1.1,10.4,8.1,10.4c8.8,0,19.8-0.6,19.8-0.6
				c0.1,0,1.3-0.1,1.7-1.4l5.3-19.6h-16.9L299.4,41.6z"/>
			<path d="M299.4,41.6l9,0.4l-1.9,7.2l-11.3,0.1c-3.2,0.1-4.2-1.5-3.4-4.4l3.6-14.5c0.7-2.9,2.4-4.4,5.6-4.4h16.9l1.8-6.9
				c0,0-9.4-0.4-19-0.4c-6.9,0-11.8,4.6-13.2,10.4l-4.2,17.2c-1.4,5.8,1.1,10.4,8.1,10.4c8.8,0,19.8-0.6,19.8-0.6
				c0.1,0,1.3-0.1,1.7-1.4l5.3-19.6h-16.9L299.4,41.6z"/>
		</g>
		<path d="M60.3,55.9c0.1,0.1,0.1,0.2,0.2,0.4h-4.3c-0.1-0.1-0.2-0.3-0.3-0.4c-0.6-0.8-1.6-2.1-3-3.2c-1.2-1-1.7-2-1.1-2.7
			c0.2-0.3,0.5-0.4,1-0.4c1,0,2.6,0.7,3.9,1.9C58.9,53.5,59.3,54.2,60.3,55.9z M61.2,32.9c-0.4-0.4-1.2-0.5-2-0.5
			c-0.4,0-0.7,0-1.6,0c-3.7,0-10.1-7-13.5-14.4c-0.5-1.1-1-2.1-1.4-3c-2.1-4.7-2.9-6.8-5-8.9c-1.8-1.8-4.3-2.6-7.7-2.6
			c-1.7,0-3.5,0.2-5.6,0.6C10.4,6.8,2.2,14.3,0.6,19.6c-1.6,5.1,1.8,8.2,4.9,9.1c2.1,0.6,7.7,1.1,13.1,1.5c4.3,0.3,6.9,0.6,8.4,0.7
			c0.6,0.1,1.1,0.3,1.2,0.7c0.2,0.4,0,0.9-0.1,1c-1.1,1.5-5.1,4.7-6.6,6.4c-5.1,4.8-9.5,10.8-11.6,17.3H13
			c1.7-4.5,5.3-11.3,16.4-18.7c4-2.6,4.9-5.2,4.1-7.7c-0.8-2.6-4-4.1-9.9-4.7c-3-0.3-12.3-1.2-14.2-1.5c-1.1-0.2-2.1-1.1-2.5-2
			c-0.4-1-0.1-2.5,0.9-4c3-4.3,8.7-7.2,13.3-8.8c4.8-1.6,8.4-2.8,11.6-2.2c3.4,0.7,4.9,3.1,7.1,8.5c2.8,6.7,7.1,14.7,10.6,17.6
			c-1.7,0-7,0-9.1,1.9c-2,1.8-1.9,4.1-1.5,5.7c0.5,1.9,1.5,4.1,1.9,4.7c-8.1,0-15.2,4.7-18.6,11.3h4.3c3-4.5,8.3-7.7,14.3-7.7
			c0,0,1.5,0,2.3,0c1.2,0,2-0.8,2-1.8c0-0.4-0.4-1.2-0.7-1.5c-0.2-0.2-2.1-3.5-2.5-6c-0.2-1.1-0.1-1.9,0.4-2.4
			c0.6-0.8,1.8-1,2.7-1.2c0.8-0.1,1.7-0.2,2.8-0.2c2,0,4.1,0.2,6,0.4c1.6,0.2,2.9,0.2,4.2,0.3c1.5,0.1,2.3-0.4,2.6-1.1
			C61.8,34.5,61.8,33.6,61.2,32.9z M39.9,2.6c6.1-0.1,9.6,0.7,10.8,1.9c1.9,1.9,1,5-0.2,7.3c-0.6,1.1-0.4,1.9-0.2,2.3
			c0.3,0.6,1.3,1,2.2,0.8c1.2-0.2,2.7-1.8,3.3-6.1c0.4-2.5-0.3-4.4-1.5-5.7c-1.4-1.6-3.7-2.7-7.4-2.7c-5.9,0-12.4,1.8-12.4,1.8
			l1.6,0.5C36.1,2.6,37.8,2.6,39.9,2.6z"/>
	</g>
	<path d="M319.6,52.6h0.5c0.4,0,0.9,0,0.9-0.6c0-0.5-0.5-0.6-0.9-0.6h-0.5V52.6z M318.9,50.8h1.5c1,0,1.4,0.4,1.4,1.2
		c0,0.7-0.4,1-1,1.1l1,1.7h-0.8l-1-1.6h-0.5v1.6h-0.7V50.8z M320.2,55.7c1.6,0,2.9-1.3,2.9-2.9c0-1.6-1.3-2.9-2.9-2.9
		c-1.6,0-2.9,1.3-2.9,2.9C317.4,54.4,318.7,55.7,320.2,55.7 M320.2,49.4c1.9,0,3.5,1.6,3.5,3.5c0,1.9-1.6,3.5-3.5,3.5
		c-1.9,0-3.5-1.6-3.5-3.5C316.8,50.9,318.3,49.4,320.2,49.4"/>
</g>
</svg>
